HIERARCHY
ROOT Hips
{
	OFFSET 0.000000 0.000000 0.000000
	CHANNELS 6 Xposition Yposition Zposition Zrotation Yrotation Xrotation 
	JOINT LHipJoint
	{
		OFFSET 0.000000 0.000000 0.000000
		CHANNELS 3 Zrotation Yrotation Xrotation
		JOINT LeftUpLeg
		{
			OFFSET 1.363060 -1.794630 0.839290
			CHANNELS 3 Zrotation Yrotation Xrotation
			JOINT LeftLeg
			{
				OFFSET 2.448110 -6.726130 0.000000
				CHANNELS 3 Zrotation Yrotation Xrotation
				JOINT LeftFoot
				{
					OFFSET 2.562200 -7.039590 0.000000
					CHANNELS 3 Zrotation Yrotation Xrotation
					JOINT LeftToeBase
					{
						OFFSET 0.157640 -0.433110 2.322550
						CHANNELS 3 Zrotation Yrotation Xrotation
						End Site
						{
							OFFSET 0.000000 0.000000 0.000000
						}
					}
				}
			}
		}
	}
	JOINT RHipJoint
	{
		OFFSET 0.000000 0.000000 0.000000
		CHANNELS 3 Zrotation Yrotation Xrotation
		JOINT RightUpLeg
		{
			OFFSET -1.305520 -1.794630 0.839290
			CHANNELS 3 Zrotation Yrotation Xrotation
			JOINT RightLeg
			{
				OFFSET -2.542530 -6.985550 0.000000
				CHANNELS 3 Zrotation Yrotation Xrotation
				JOINT RightFoot
				{
					OFFSET -2.568260 -7.056230 0.000000
					CHANNELS 3 Zrotation Yrotation Xrotation
					JOINT RightToeBase
					{
						OFFSET -0.164730 -0.452590 2.363150
						CHANNELS 3 Zrotation Yrotation Xrotation
						End Site
						{
							OFFSET 0.000000 0.000000 0.000000
						}
					}
				}
			}
		}
	}
	JOINT LowerBack
	{
		OFFSET 0.000000 0.000000 0.000000
		CHANNELS 3 Zrotation Yrotation Xrotation
		JOINT Spine
		{
			OFFSET 0.028270 2.035590 -0.193380
			CHANNELS 3 Zrotation Yrotation Xrotation
			JOINT Spine1
			{
				OFFSET 0.056720 2.048850 -0.042750
				CHANNELS 3 Zrotation Yrotation Xrotation
				JOINT Neck
				{
					OFFSET 0.000000 0.000000 0.000000
					CHANNELS 3 Zrotation Yrotation Xrotation
					JOINT Neck1
					{
						OFFSET -0.054170 1.746240 0.172020
						CHANNELS 3 Zrotation Yrotation Xrotation
						JOINT Head
						{
							OFFSET 0.104070 1.761360 -0.123970
							CHANNELS 3 Zrotation Yrotation Xrotation
							End Site
							{
								OFFSET 0.000000 0.000000 0.000000
							}
						}
					}
				}
				JOINT LeftShoulder
				{
					OFFSET 0.000000 0.000000 0.000000
					CHANNELS 3 Zrotation Yrotation Xrotation
					JOINT LeftArm
					{
						OFFSET 3.362410 1.200890 -0.311210
						CHANNELS 3 Zrotation Yrotation Xrotation
						JOINT LeftForeArm
						{
							OFFSET 4.983000 -0.000000 -0.000000
							CHANNELS 3 Zrotation Yrotation Xrotation
							JOINT LeftHand
							{
								OFFSET 3.483560 -0.000000 -0.000000
								CHANNELS 3 Zrotation Yrotation Xrotation
								JOINT LeftFingerBase
								{
									OFFSET 0.000000 0.000000 0.000000
									CHANNELS 3 Zrotation Yrotation Xrotation
									JOINT LeftHandIndex1
									{
										OFFSET 0.715260 -0.000000 -0.000000
										CHANNELS 3 Zrotation Yrotation Xrotation
										End Site
										{
											OFFSET 0.000000 0.000000 0.000000
										}
									}
								}
								JOINT LThumb
								{
									OFFSET 0.000000 0.000000 0.000000
									CHANNELS 3 Zrotation Yrotation Xrotation
									End Site
									{
										OFFSET 0.000000 0.000000 0.000000
									}
								}
							}
						}
					}
				}
				JOINT RightShoulder
				{
					OFFSET 0.000000 0.000000 0.000000
					CHANNELS 3 Zrotation Yrotation Xrotation
					JOINT RightArm
					{
						OFFSET -3.136600 1.374050 -0.404650
						CHANNELS 3 Zrotation Yrotation Xrotation
						JOINT RightForeArm
						{
							OFFSET -5.241900 -0.000000 -0.000000
							CHANNELS 3 Zrotation Yrotation Xrotation
							JOINT RightHand
							{
								OFFSET -3.444170 -0.000000 -0.000000
								CHANNELS 3 Zrotation Yrotation Xrotation
								JOINT RightFingerBase
								{
									OFFSET 0.000000 0.000000 0.000000
									CHANNELS 3 Zrotation Yrotation Xrotation
									JOINT RightHandIndex1
									{
										OFFSET -0.622530 -0.000000 -0.000000
										CHANNELS 3 Zrotation Yrotation Xrotation
										End Site
										{
											OFFSET 0.000000 0.000000 0.000000
										}
									}
								}
								JOINT RThumb
								{
									OFFSET 0.000000 0.000000 0.000000
									CHANNELS 3 Zrotation Yrotation Xrotation
									End Site
									{
										OFFSET 0.000000 0.000000 0.000000
									}
								}
							}
						}
					}
				}
			}
		}
	}
}
MOTION
Frames: 10
Frame Time: 0.008333
-0.163744 17.780652 10.551974 -6.532225 -6.941590 6.353709 1.167026 1.037255 0.723786 -10.957884 -4.771877 -3.287829 0.181334 6.318847 18.157868 -0.964879 8.131335 -10.755287 0.007900 -0.572200 -1.572400 -4.234308 -0.854291 -1.545654 27.459903 6.005308 2.807770 -0.195887 -2.430474 7.533029 1.435722 -13.303869 -9.265648 -0.114000 -2.176800 5.994600 0.683255 -4.444593 -2.142053 2.985327 -6.374597 -2.476974 8.097512 -3.503610 0.427848 -10.242338 -12.446115 -0.494132 6.860436 -17.620157 22.966801 1.753900 -8.341100 10.512900 1.515774 5.160235 -0.290046 -93.565049 5.194668 18.746417 16.333982 -26.900293 -3.537789 0.448228 0.047187 5.441801 2.150175 44.701038 1.199900 -7.125000 0.000000 0.000000 -51.233000 67.974600 -31.293600 -0.518685 -4.592701 -1.487932 81.290647 -5.323800 19.869703 -13.712452 24.656982 -2.908835 0.904398 0.826522 -22.307179 -18.325921 18.755824 -6.300500 7.125000 0.000000 0.000000 5.617800 -10.839900 4.483200 
-0.162728 17.780753 10.555324 -6.513695 -6.801638 6.401798 1.202796 1.045714 0.702588 -11.022496 -4.822866 -3.361164 0.199099 6.334967 18.178538 -1.242131 9.228977 -8.943329 0.134700 2.365800 6.517700 -4.236016 -0.861710 -1.532834 27.442785 5.863656 2.801469 -0.184249 -2.365480 7.357000 1.457772 -13.438993 -9.278360 -0.128800 -2.313800 6.373700 0.769634 -4.466725 -2.108700 2.965597 -6.399021 -2.559584 8.014670 -3.493521 0.162650 -10.460002 -12.573638 -0.249511 7.084448 -17.777315 22.257522 1.874700 -8.449600 10.238200 1.503942 5.138958 -0.297375 -93.471042 5.462831 19.166462 16.222505 -26.726818 -3.481817 0.448491 0.044004 5.291775 2.966736 44.872055 1.779000 -7.125000 0.000000 0.000000 -50.862500 68.347200 -31.417600 -0.514384 -4.588937 -1.471606 81.557684 -5.152081 18.218605 -13.349240 24.059675 -2.728526 0.924223 0.789916 -20.826425 -18.095887 18.797709 -6.237300 7.125000 0.000000 0.000000 5.775600 -10.810700 4.613900 
-0.175012 17.779434 10.564358 -6.721386 -6.887646 6.428216 1.208919 1.053204 0.704507 -10.766211 -4.756126 -3.337172 0.193559 6.321402 18.144985 -1.281264 9.432236 -8.995574 0.112100 2.159100 5.945400 -4.243857 -0.866015 -1.520709 27.752683 5.975584 2.826831 -0.184318 -2.385240 7.404520 1.456530 -13.415493 -9.207470 -0.116800 -2.203600 6.068800 0.937330 -4.432024 -2.108513 2.960985 -6.355432 -2.592283 7.937488 -3.462282 0.036817 -10.612257 -12.735125 -0.140625 7.177002 -17.958448 21.634661 1.922200 -8.565400 10.012000 1.495060 5.127082 -0.297221 -93.497490 5.541110 18.623885 16.075172 -26.507913 -3.411664 0.448018 0.041856 6.118923 1.929131 44.797983 1.046800 -7.125000 0.000000 0.000000 -51.616200 67.963500 -31.562500 -0.514064 -4.599131 -1.463416 81.777375 -5.405466 17.334455 -13.203337 23.820691 -2.662673 0.923054 0.781095 -19.929015 -18.123269 18.490468 -6.139800 7.125000 0.000000 0.000000 5.747600 -11.135900 4.552900 
-0.178463 17.780855 10.563749 -6.576025 -6.755187 6.418223 1.217373 1.051910 0.704929 -10.899647 -4.766719 -3.381133 0.196605 6.313779 18.125681 -1.237083 9.185876 -8.866742 0.130500 2.328300 6.413900 -4.223969 -0.861909 -1.526971 27.583010 5.810672 2.839536 -0.178810 -2.341819 7.289877 1.450444 -13.391794 -9.316623 -0.141100 -2.420800 6.670200 0.907183 -4.408538 -2.070491 2.870218 -6.301487 -2.610830 7.708571 -3.433031 -0.043921 -10.594235 -13.013322 -0.332246 7.246999 -18.297698 21.153585 1.895000 -8.719700 9.918800 1.470145 5.120407 -0.309443 -93.288250 5.429395 18.686715 15.884313 -26.225924 -3.323899 0.450669 0.039367 6.403084 1.801487 44.520820 0.950500 -7.125000 0.000000 0.000000 -51.191500 67.750800 -31.023800 -0.531738 -4.597142 -1.458330 82.016085 -5.368217 17.178962 -13.081644 23.594091 -2.596068 0.906012 0.812561 -20.927796 -18.512771 18.241827 -6.184200 7.125000 0.000000 0.000000 5.475000 -11.365800 4.308900 
-0.185163 17.783190 10.575119 -6.590176 -6.835060 6.480086 1.185269 1.041233 0.732963 -10.825581 -4.801194 -3.424203 0.178948 6.302163 18.121181 -0.948475 8.045813 -10.778155 0.023300 -0.986400 -2.711500 -4.215070 -0.857199 -1.533111 27.613743 5.875759 2.897942 -0.173503 -2.304298 7.179746 1.457990 -13.421234 -9.194696 -0.120900 -2.241500 6.173400 0.950794 -4.295903 -2.254080 2.841150 -6.161838 -2.621157 7.619670 -3.358165 -0.026345 -10.556902 -12.998582 -0.142766 7.688517 -18.297976 20.350953 2.063000 -8.717500 9.582000 1.467685 5.109429 -0.305664 -93.184932 5.460211 19.141073 15.664045 -25.911033 -3.224426 0.453008 0.038940 6.455753 1.806280 44.457090 0.951200 -7.125000 0.000000 0.000000 -51.066500 67.712000 -30.891400 -0.527880 -4.614277 -1.451548 82.032063 -5.331948 16.905166 -12.841763 23.183324 -2.479246 0.898622 0.826760 -21.117406 -18.762874 17.994769 -6.179900 7.125000 0.000000 0.000000 5.295900 -11.606700 4.140300 
-0.174403 17.781971 10.587098 -6.588739 -6.578154 6.485856 1.191079 1.040711 0.734690 -10.849922 -4.910613 -3.399302 0.181944 6.304377 18.132169 -0.931397 7.952202 -10.751334 0.017800 -0.861500 -2.367900 -4.198245 -0.859994 -1.540889 27.520398 5.591891 2.926939 -0.166632 -2.271441 7.091863 1.463441 -13.468812 -9.312247 -0.149000 -2.487100 6.853900 1.269754 -4.350420 -2.349668 2.784534 -6.233052 -2.644270 7.237688 -3.385794 -0.102518 -10.675536 -13.041258 0.264187 8.008532 -18.364829 19.481817 2.230800 -8.785400 9.200500 1.449999 5.089372 -0.300174 -93.025334 5.640006 19.559830 15.554217 -25.730405 -3.166389 0.455389 0.037455 6.393684 1.816712 44.663833 0.960200 -7.125000 0.000000 0.000000 -51.462700 67.843500 -31.321200 -0.548427 -4.632844 -1.438455 82.162296 -5.433455 16.386868 -12.671625 22.913320 -2.393610 0.922505 0.803267 -20.999644 -18.551792 18.546063 -6.308400 7.125000 0.000000 0.000000 5.458700 -11.028800 4.333800 
-0.183844 17.781058 10.589940 -6.647376 -6.689942 6.510523 1.200437 1.046506 0.737913 -10.780825 -4.856839 -3.393303 0.173529 6.281771 18.071397 -0.940880 8.010052 -10.805983 0.019700 -0.907300 -2.493700 -4.197841 -0.858610 -1.532668 27.641352 5.714510 2.937218 -0.164209 -2.250223 7.026885 1.474886 -13.509688 -9.097041 -0.113800 -2.174700 5.988700 1.328185 -4.324837 -2.282317 2.733664 -6.184698 -2.682179 7.097696 -3.354454 -0.271924 -10.944396 -13.195468 0.301955 8.403270 -18.572206 18.941039 2.403900 -8.897300 9.092800 1.431911 5.080824 -0.304212 -92.826970 5.747622 19.614474 15.443355 -25.563238 -3.125902 0.458318 0.031694 6.363377 2.749241 43.866127 1.590200 -7.125000 0.000000 0.000000 -49.124000 67.641600 -29.421200 -0.568411 -4.623133 -1.430945 82.304042 -5.601937 16.352359 -12.569983 22.733893 -2.354043 0.907686 0.813547 -21.022563 -18.657119 18.138561 -6.199100 7.125000 0.000000 0.000000 5.372400 -11.454700 4.217500 
-0.185062 17.778926 10.590448 -6.738370 -6.625760 6.544709 1.207210 1.047526 0.734170 -10.655772 -4.903993 -3.397898 0.173795 6.271901 18.046221 -0.933190 7.949897 -10.725031 0.019400 -0.900100 -2.474000 -4.193161 -0.858954 -1.536278 27.753887 5.638805 2.989270 -0.160234 -2.243585 7.007634 1.471845 -13.497909 -9.188737 -0.125700 -2.285200 6.294500 1.563257 -4.257795 -2.298908 2.688140 -6.090912 -2.670757 6.846376 -3.313523 -0.251221 -10.749321 -13.344655 0.010998 8.407481 -18.719328 18.494891 2.336100 -8.951200 8.988300 1.412741 5.075409 -0.317564 -92.724109 5.551810 19.746532 15.346891 -25.401623 -3.065673 0.457910 0.033586 6.864888 1.594941 44.696711 0.803300 -7.125000 0.000000 0.000000 -51.722200 67.791800 -31.455400 -0.567519 -4.632249 -1.426367 82.515349 -5.527131 15.529619 -12.332923 22.329188 -2.228891 0.937753 0.789886 -20.654515 -18.621337 18.729237 -6.399500 7.125000 0.000000 0.000000 5.419500 -10.819100 4.325800 
-0.181204 17.781362 10.610751 -6.524533 -6.581771 6.531259 1.208073 1.045722 0.738225 -10.920254 -4.984835 -3.244025 0.159344 6.236555 17.949067 -0.907147 7.848049 -10.849961 0.004000 -0.410400 -1.127700 -4.173754 -0.859048 -1.533826 27.441471 5.615771 2.877831 -0.176493 -2.316773 7.214375 1.445371 -13.354608 -9.260205 -0.102800 -2.067100 5.691200 1.508137 -4.238689 -2.487503 2.620335 -6.063450 -2.701139 6.667459 -3.292365 -0.276645 -10.890249 -13.409343 0.284012 8.599000 -18.799510 17.848674 2.445200 -9.022800 8.721600 1.398030 5.065329 -0.314471 -92.656739 5.759153 20.122819 15.317013 -25.346896 -3.049253 0.458883 0.034544 6.583607 1.630727 44.770413 0.828700 -7.125000 0.000000 0.000000 -51.838000 67.848800 -31.601800 -0.584766 -4.650910 -1.419226 82.569242 -5.730682 15.149356 -12.176256 22.067614 -2.164421 0.925757 0.800634 -20.695355 -18.728700 18.364022 -6.306400 7.125000 0.000000 0.000000 5.331900 -11.199700 4.213500 
-0.177042 17.782987 10.599483 -6.495866 -6.359022 6.642628 1.212029 1.047904 0.739092 -10.933289 -5.287310 -3.300397 0.141968 6.193910 17.815648 -0.939171 7.959271 -10.619075 0.000900 -0.190700 -0.524100 -4.168672 -0.866846 -1.516097 27.383953 5.517579 2.559889 -0.185900 -2.386610 7.399371 1.450174 -13.411263 -9.354113 -0.128000 -2.306400 6.353300 1.559842 -4.347657 -2.334803 2.615050 -6.197900 -2.769385 6.625059 -3.345961 -0.529876 -10.968160 -13.431966 0.317189 8.794577 -18.797140 17.251461 2.528500 -9.035900 8.528200 1.389384 5.043044 -0.322796 -92.732228 6.000539 19.848560 15.429444 -25.489275 -3.094457 0.455259 0.033469 7.114702 0.898349 44.979317 0.317600 -7.125000 0.000000 0.000000 -52.871600 67.740000 -32.245100 -0.583777 -4.640272 -1.418041 82.589654 -5.617742 14.920698 -11.951547 21.656818 -2.065743 0.918405 0.801970 -20.392914 -18.837552 18.028562 -6.223000 7.125000 0.000000 0.000000 5.246500 -11.546000 4.107900 
